<?xml version="1.0" encoding="iso-8859-1"?>
<!-- Uploaded to: SVG Repo, www.svgrepo.com, Generator: SVG Repo Mixer Tools -->
<svg fill="#000000" height="800px" width="800px" version="1.1" id="Layer_1" xmlns="http://www.w3.org/2000/svg" xmlns:xlink="http://www.w3.org/1999/xlink" 
	 viewBox="0 0 485 485" xml:space="preserve">
<g>
	<polygon points="248.38,320.98 248.38,314.106 164.644,314.106 164.644,118.399 103.609,118.399 103.609,366.601 248.38,366.601 	
		"/>
	<path d="M272.83,366.601h55v-89.585c0-4.408,0.36-8.817,1.035-12.322c3.689-17.046,17.403-27.929,37.778-27.929
		c6.16,0,10.746,0.719,14.748,1.573V186.53c-4.002-0.719-6.475-0.719-11.556-0.719c-17.046,0-38.676,10.927-47.808,36.562h-1.394
		l-1.751-32.695h-47.448c0.722,15.289,1.397,32.335,1.397,58.329V366.601z"/>
	<path d="M0,0v485h485V0H0z M455,455H30V30h425V455z"/>
</g>
</svg>